HIERARCHY
ROOT pelvis
{
	OFFSET 0.000000 0.000000 0.000000
	CHANNELS 6 Xposition Yposition Zposition Zrotation Xrotation Yrotation
	JOINT lfemur
	{
		OFFSET 11.446000 0.000000 0.000000
		CHANNELS 3 Zrotation Xrotation Yrotation
		JOINT ltibia
		{
			OFFSET 0.000000 -42.030400 0.000000
			CHANNELS 3 Zrotation Xrotation Yrotation
			JOINT lfoot
			{
				OFFSET 0.000000 -39.930200 0.000000
				CHANNELS 3 Zrotation Xrotation Yrotation
				JOINT ltoes
				{
					OFFSET 0.000000 0.000000 11.775800
					CHANNELS 3 Zrotation Xrotation Yrotation
					End Site
					{
					    OFFSET 0.000000 0.000000 5.000000
					}
				}
			}
		}
	}
	JOINT rfemur
	{
		OFFSET -11.446000 0.000000 0.000000
		CHANNELS 3 Zrotation Xrotation Yrotation
		JOINT rtibia
		{
			OFFSET 0.000000 -42.030400 0.000000
			CHANNELS 3 Zrotation Xrotation Yrotation
			JOINT rfoot
			{
				OFFSET 0.000000 -39.930200 0.000000
				CHANNELS 3 Zrotation Xrotation Yrotation
				JOINT rtoes
				{
					OFFSET 0.000000 0.000000 11.775800
					CHANNELS 3 Zrotation Xrotation Yrotation
					End Site
					{
					    OFFSET 0.000000 0.000000 5.000000
					}
				}
			}
		}
	}
	JOINT thorax
	{
		OFFSET 0.000000 11.255600 -5.000000
		CHANNELS 3 Zrotation Xrotation Yrotation
		JOINT head
		{
			OFFSET 0.000000 43.799300 0.000000
			CHANNELS 3 Zrotation Xrotation Yrotation
			End Site
			{
			    OFFSET 0.000000 5.000000 0.000000
			}
		}
		JOINT lclavicle
		{
			OFFSET 0.000000 39.863000 0.000000
			CHANNELS 3 Zrotation Xrotation Yrotation
			JOINT lhumerus
			{
				OFFSET 17.380600 4.958300 0.000000
				CHANNELS 3 Zrotation Xrotation Yrotation
				JOINT lradius
				{
					OFFSET 0.000000 -27.561300 0.000000
					CHANNELS 3 Zrotation Xrotation Yrotation
					JOINT lhand
					{
						OFFSET 0.000000 -26.933000 0.000000
						CHANNELS 3 Zrotation Xrotation Yrotation
						End Site
						{
						    OFFSET 0.000000 -5.000000 0.000000
						}
					}
				}
			}
		}
		JOINT rclavicle
		{
			OFFSET 0.000000 39.863000 0.000000
			CHANNELS 3 Zrotation Xrotation Yrotation
			JOINT rhumerus
			{
				OFFSET -17.380600 4.958300 0.000000
				CHANNELS 3 Zrotation Xrotation Yrotation
				JOINT rradius
				{
					OFFSET 0.000000 -27.561300 0.000000
					CHANNELS 3 Zrotation Xrotation Yrotation
					JOINT rhand
					{
						OFFSET 0.000000 -26.933000 0.000000
						CHANNELS 3 Zrotation Xrotation Yrotation
						End Site
						{
						    OFFSET 0.000000 -5.000000 0.000000
						}
					}
				}
			}
		}
	}
}
MOTION
Frames:	13
Frame Time:	0.0333333
59.293900 87.796900 4.760200 -0.467276 -1.378122 -89.563821 -5.641307 2.819435 -8.651036 -0.000000 9.240240 -0.000000 0.000000 3.555270 6.177856 0.000000 -1.301336 -0.000000 -1.803037 2.742629 -3.741876 -0.000000 9.274983 -0.000000 0.000000 3.290364 2.906258 0.000000 -29.528157 0.000000 -4.531867 0.132349 0.213401 15.628959 24.623904 -0.608822 0.394562 0.000000 3.487028 83.769402 0.553653 62.001030 -0.000001 -12.781487 -55.037055 5.615823 0.703335 0.000000 0.095169 -0.000000 -0.923419 -78.312883 9.001808 -58.564139 0.000000 -20.003803 36.764996 -3.936911 -2.063559 -0.000000 
59.283400 87.788000 4.723200 -0.460583 -1.371016 -89.598382 -5.613055 2.823866 -8.590526 -0.000000 9.236753 -0.000000 0.000000 3.482522 6.157542 -0.000000 -1.301309 -0.000000 -1.764308 2.690030 -3.623681 0.000000 9.352073 -0.000000 0.000000 3.227821 2.830198 -0.000000 -29.528574 -0.000000 -4.519904 0.068020 0.272527 15.629935 24.702174 -0.608441 0.335701 -0.000000 3.441284 83.659059 0.665633 61.486106 0.000001 -13.002227 -54.575809 5.481793 0.890782 -0.000000 0.056453 -0.000000 -0.952533 -78.232846 8.970140 -58.708913 0.000000 -19.988855 36.840645 -3.782838 -2.116223 -0.000000 
59.279500 87.787700 4.696000 -0.455028 -1.397547 -89.595496 -5.614439 2.824582 -8.624137 -0.000000 9.237227 0.000000 -0.000000 3.495944 6.151834 0.000000 -1.304155 -0.000000 -1.781444 2.654905 -3.726787 -0.000000 9.421968 -0.000000 0.000000 3.177267 2.928264 0.000000 -29.528167 -0.000000 -4.565781 -0.001285 0.270199 15.658960 24.731142 -0.685422 0.328532 -0.000000 3.457950 83.613371 0.578075 61.907704 -0.000000 -12.935610 -54.461537 5.479304 0.921058 0.000000 0.078958 0.000000 -0.964603 -78.184693 8.985738 -58.624276 -0.000001 -20.016010 36.947765 -4.029797 -2.030814 0.000000 
59.280400 87.789300 4.652200 -0.477127 -1.410721 -89.639994 -5.585035 2.850563 -8.371627 0.000000 9.217180 -0.000000 0.000000 3.506331 5.982576 -0.000000 -1.303095 -0.000000 -1.770054 2.657888 -3.659066 -0.000000 9.443351 0.000000 0.000000 3.136335 2.923853 -0.000000 -29.527672 -0.000000 -4.612471 -0.057196 0.281018 15.677405 24.733480 -0.708753 0.258155 0.000000 3.340808 83.646227 0.841764 61.804191 -0.000001 -13.000473 -54.146964 5.397294 0.843260 -0.000000 0.256453 -0.000000 -0.769693 -78.360658 9.253671 -58.500886 0.000000 -19.982354 36.915312 -3.947123 -2.058705 -0.000000 
59.276300 87.789300 4.620800 -0.445278 -1.396080 -89.645006 -5.546605 2.875637 -8.418768 -0.000000 9.098377 -0.000000 -0.000000 3.524130 6.023120 -0.000000 -1.305576 -0.000000 -1.742872 2.614944 -3.766023 -0.000000 9.469564 -0.000000 0.000000 3.134321 3.043891 0.000000 -29.527805 -0.000000 -4.597889 -0.073588 0.284432 15.619709 24.635114 -0.583639 0.171489 0.000000 3.373950 83.791550 0.855224 61.987512 0.000000 -12.797496 -54.310562 5.346992 0.658407 -0.000000 0.277973 -0.000000 -0.911409 -78.404520 9.066119 -58.809856 -0.000001 -19.878992 36.881694 -3.795473 -2.109823 0.000000 
59.279600 87.789100 4.599500 -0.414508 -1.410866 -89.667358 -5.543129 2.873994 -8.388694 -0.000000 9.039713 -0.000000 0.000000 3.563509 6.016325 -0.000000 -1.306064 -0.000000 -1.748160 2.559622 -3.749856 -0.000000 9.499804 -0.000000 0.000000 3.163456 3.053155 -0.000000 -29.527720 -0.000000 -4.603821 -0.085925 0.306714 15.533079 24.551887 -0.494647 0.100387 0.000000 3.363002 83.787369 1.084863 61.449360 -0.000000 -12.948852 -54.077904 5.334125 0.730588 -0.000000 0.310203 -0.000000 -0.986112 -78.405252 9.081945 -58.672682 0.000001 -19.904927 36.923435 -3.991475 -2.044058 0.000000 
59.298700 87.789200 4.572500 -0.312057 -1.410583 -89.707467 -5.518835 2.790376 -8.350055 0.000000 8.993327 0.000000 0.000000 3.575416 5.992054 -0.000000 -1.305592 0.000000 -1.723146 2.426060 -3.628316 -0.000000 9.530110 -0.000000 -0.000000 3.116062 2.950790 0.000000 -29.527918 0.000000 -4.600456 -0.161495 0.325656 15.392117 24.531199 -0.213130 0.056582 0.000000 3.386876 83.881341 1.129296 61.653794 -0.000000 -12.843887 -54.055884 5.427535 0.795691 -0.000000 0.228289 -0.000000 -1.099903 -78.268279 8.977892 -58.817824 0.000000 -19.893672 37.010048 -3.951382 -2.057043 -0.000000 
59.297800 87.791100 4.547600 -0.253348 -1.415546 -89.718306 -5.506833 2.762982 -8.356240 -0.000000 8.929569 0.000000 0.000000 3.595897 6.013200 0.000000 -1.307141 -0.000000 -1.717706 2.395821 -3.671374 -0.000000 9.469052 0.000000 0.000000 3.135647 3.008847 0.000000 -29.527484 0.000000 -4.605983 -0.206558 0.331250 15.300572 24.481085 -0.154672 0.010514 0.000000 3.404495 83.984483 1.164730 61.706735 -0.000001 -12.818449 -54.111460 5.480902 0.726759 0.000000 0.262222 -0.000000 -1.152818 -78.291163 8.994752 -58.679913 -0.000001 -19.905624 36.857568 -4.021564 -2.033198 0.000000 
59.303400 87.788100 4.520900 -0.228405 -1.427178 -89.737220 -5.499773 2.753474 -8.355905 0.000000 8.893458 -0.000000 0.000000 3.586339 6.027476 -0.000000 -1.308169 -0.000000 -1.715807 2.282110 -3.594827 -0.000000 9.633666 -0.000000 -0.000000 3.047288 2.987213 -0.000000 -29.527071 0.000000 -4.615550 -0.235484 0.346588 15.187455 24.458865 -0.047012 0.013778 0.000000 3.376073 83.967867 1.268346 61.554539 -0.000001 -12.928806 -54.029306 5.380948 0.716413 0.000000 0.297339 0.000000 -1.189446 -78.354693 9.023463 -58.696445 0.000000 -19.894269 37.014540 -3.719698 -2.136399 0.000000 
59.303300 87.783400 4.511500 -0.215483 -1.459498 -89.762139 -5.525922 2.734673 -8.385393 0.000000 8.912466 -0.000000 0.000000 3.592523 6.051821 -0.000000 -1.305650 -0.000000 -1.739287 2.224069 -3.547723 -0.000000 9.721032 -0.000000 -0.000000 2.999088 2.943577 -0.000000 -29.527450 -0.000000 -4.635102 -0.186184 0.300088 15.106545 24.383594 0.064898 0.077128 0.000000 3.511177 83.917512 1.181547 61.652924 -0.000000 -12.912785 -54.327015 5.349790 0.769636 0.000000 0.280312 -0.000000 -1.140327 -78.344409 9.052370 -58.591221 -0.000000 -19.925156 36.823537 -4.011159 -2.036632 -0.000000 
59.293400 87.778900 4.485200 -0.227176 -1.487309 -89.793428 -5.545640 2.764536 -8.397712 -0.000000 8.890310 -0.000000 0.000000 3.595198 6.122952 -0.000000 -1.306631 0.000000 -1.755759 2.175491 -3.536498 0.000000 9.852663 -0.000000 -0.000000 2.911693 2.954091 -0.000000 -29.527262 0.000000 -4.647783 -0.135828 0.280618 15.044046 24.329117 0.113418 0.030561 0.000000 3.473347 83.982961 1.318132 61.339902 -0.000000 -12.986804 -53.841574 5.420166 0.668476 0.000000 0.350580 0.000000 -1.102659 -78.501583 9.077859 -58.415332 -0.000000 -19.937383 36.637910 -4.004603 -2.039487 0.000000 
59.290200 87.774600 4.472200 -0.208507 -1.495610 -89.829192 -5.539090 2.733685 -8.327273 -0.000000 8.922979 0.000000 -0.000000 3.584528 6.037571 -0.000000 -1.308997 0.000000 -1.749133 2.165606 -3.431376 0.000000 9.834638 -0.000000 -0.000000 2.913889 2.865212 -0.000000 -29.527085 -0.000000 -4.632723 -0.137957 0.303604 14.988644 24.340773 0.182865 0.051408 -0.000000 3.601275 83.986162 1.127196 61.333900 -0.000001 -12.978411 -53.698272 5.515882 0.737382 -0.000000 0.317359 -0.000000 -1.142428 -78.491844 9.037621 -58.358612 -0.000000 -19.966960 36.719854 -4.066195 -2.018634 0.000000 
59.260200 87.779000 4.463100 -0.211990 -1.497099 -89.809487 -5.548324 2.743034 -8.398894 0.000000 8.958552 -0.000000 -0.000000 3.587419 6.149289 -0.000000 -1.305182 -0.000000 -1.752948 2.198375 -3.564687 -0.000000 9.821705 -0.000000 -0.000000 2.902851 2.990727 -0.000000 -29.527132 -0.000000 -4.624844 -0.155052 0.334012 15.150493 24.237110 -0.051989 0.097665 0.000000 3.511710 83.953634 1.142713 61.333796 0.000000 -12.986162 -53.715112 5.480361 0.786843 0.000000 0.346002 -0.000000 -1.146042 -78.578751 9.141056 -58.251438 -0.000001 -19.967127 36.568568 -3.951473 -2.057909 -0.000000 
